<mxfile host="Electron" modified="2023-09-04T15:05:04.851Z" agent="Mozilla/5.0 (Windows NT 10.0; Win64; x64) AppleWebKit/537.36 (KHTML, like Gecko) draw.io/21.6.8 Chrome/114.0.5735.289 Electron/25.5.0 Safari/537.36" etag="1lgD1C58J4wO3lDAaC0S" version="21.6.8" type="device">
  <diagram name="Page-1" id="0lOjAJvx04hXk5ReBUcT">
    <mxGraphModel dx="934" dy="601" grid="1" gridSize="10" guides="1" tooltips="1" connect="1" arrows="1" fold="1" page="1" pageScale="1" pageWidth="850" pageHeight="1100" math="0" shadow="0">
      <root>
        <mxCell id="0" />
        <mxCell id="1" parent="0" />
        <mxCell id="-K6APd13raqF4s7BGFVa-4" value="" style="edgeStyle=orthogonalEdgeStyle;rounded=0;orthogonalLoop=1;jettySize=auto;html=1;" edge="1" parent="1" source="-K6APd13raqF4s7BGFVa-1" target="-K6APd13raqF4s7BGFVa-3">
          <mxGeometry relative="1" as="geometry" />
        </mxCell>
        <mxCell id="-K6APd13raqF4s7BGFVa-1" value="&lt;b&gt;&lt;font style=&quot;font-size: 14px;&quot;&gt;MULAI&lt;/font&gt;&lt;/b&gt;" style="ellipse;whiteSpace=wrap;html=1;" vertex="1" parent="1">
          <mxGeometry x="365" y="50" width="120" height="60" as="geometry" />
        </mxCell>
        <mxCell id="-K6APd13raqF4s7BGFVa-6" value="" style="edgeStyle=orthogonalEdgeStyle;rounded=0;orthogonalLoop=1;jettySize=auto;html=1;" edge="1" parent="1" source="-K6APd13raqF4s7BGFVa-3" target="-K6APd13raqF4s7BGFVa-5">
          <mxGeometry relative="1" as="geometry" />
        </mxCell>
        <mxCell id="-K6APd13raqF4s7BGFVa-3" value="Siapkan: Nasi, Minyak goreng, Bumbu halus, Kecap, Garam, 1 butir telur ayam, Sosis, sambal" style="shape=hexagon;perimeter=hexagonPerimeter2;whiteSpace=wrap;html=1;fixedSize=1;" vertex="1" parent="1">
          <mxGeometry x="332" y="160" width="187" height="80" as="geometry" />
        </mxCell>
        <mxCell id="-K6APd13raqF4s7BGFVa-10" value="" style="edgeStyle=orthogonalEdgeStyle;rounded=0;orthogonalLoop=1;jettySize=auto;html=1;" edge="1" parent="1" source="-K6APd13raqF4s7BGFVa-5" target="-K6APd13raqF4s7BGFVa-9">
          <mxGeometry relative="1" as="geometry" />
        </mxCell>
        <mxCell id="-K6APd13raqF4s7BGFVa-5" value="Siapkan penggorengan dengan api sedang, tuang minyak goreng" style="whiteSpace=wrap;html=1;" vertex="1" parent="1">
          <mxGeometry x="348" y="290" width="155" height="60" as="geometry" />
        </mxCell>
        <mxCell id="-K6APd13raqF4s7BGFVa-14" value="" style="edgeStyle=orthogonalEdgeStyle;rounded=0;orthogonalLoop=1;jettySize=auto;html=1;" edge="1" parent="1" source="-K6APd13raqF4s7BGFVa-9" target="-K6APd13raqF4s7BGFVa-13">
          <mxGeometry relative="1" as="geometry" />
        </mxCell>
        <mxCell id="-K6APd13raqF4s7BGFVa-9" value="Masukkan sosis yang sudah dipotong-potong dan 1 butir &lt;br&gt;telur, Tumis sebentar" style="shape=parallelogram;perimeter=parallelogramPerimeter;whiteSpace=wrap;html=1;fixedSize=1;fontSize=11;" vertex="1" parent="1">
          <mxGeometry x="334" y="400" width="183" height="60" as="geometry" />
        </mxCell>
        <mxCell id="-K6APd13raqF4s7BGFVa-16" value="" style="edgeStyle=orthogonalEdgeStyle;rounded=0;orthogonalLoop=1;jettySize=auto;html=1;" edge="1" parent="1" source="-K6APd13raqF4s7BGFVa-13" target="-K6APd13raqF4s7BGFVa-15">
          <mxGeometry relative="1" as="geometry" />
        </mxCell>
        <mxCell id="-K6APd13raqF4s7BGFVa-13" value="Masukkan bumbu halus &lt;br&gt;dan nasi, aduk hingga &lt;br&gt;tercampur rata" style="shape=parallelogram;perimeter=parallelogramPerimeter;whiteSpace=wrap;html=1;fixedSize=1;fontSize=11;" vertex="1" parent="1">
          <mxGeometry x="560" y="400" width="160" height="60" as="geometry" />
        </mxCell>
        <mxCell id="-K6APd13raqF4s7BGFVa-18" value="" style="edgeStyle=orthogonalEdgeStyle;rounded=0;orthogonalLoop=1;jettySize=auto;html=1;" edge="1" parent="1" source="-K6APd13raqF4s7BGFVa-15" target="-K6APd13raqF4s7BGFVa-17">
          <mxGeometry relative="1" as="geometry" />
        </mxCell>
        <mxCell id="-K6APd13raqF4s7BGFVa-15" value="Tuang kecap, sambal, dan garam. Aduk hingga warna nasi berubah secara merata" style="whiteSpace=wrap;html=1;fontSize=11;" vertex="1" parent="1">
          <mxGeometry x="770" y="400" width="160" height="60" as="geometry" />
        </mxCell>
        <mxCell id="-K6APd13raqF4s7BGFVa-20" value="" style="edgeStyle=orthogonalEdgeStyle;rounded=0;orthogonalLoop=1;jettySize=auto;html=1;" edge="1" parent="1" source="-K6APd13raqF4s7BGFVa-17" target="-K6APd13raqF4s7BGFVa-19">
          <mxGeometry relative="1" as="geometry" />
        </mxCell>
        <mxCell id="-K6APd13raqF4s7BGFVa-17" value="Nasi goreng sudah matang" style="shape=parallelogram;perimeter=parallelogramPerimeter;whiteSpace=wrap;html=1;fixedSize=1;fontSize=11;" vertex="1" parent="1">
          <mxGeometry x="980" y="400" width="130" height="60" as="geometry" />
        </mxCell>
        <mxCell id="-K6APd13raqF4s7BGFVa-19" value="SELESAI" style="ellipse;whiteSpace=wrap;html=1;fontSize=13;fontStyle=1" vertex="1" parent="1">
          <mxGeometry x="1005" y="500" width="80" height="50" as="geometry" />
        </mxCell>
      </root>
    </mxGraphModel>
  </diagram>
</mxfile>
